<svg width="46.000000" height="47.000000" viewBox="0 0 46 47" fill="none" xmlns="http://www.w3.org/2000/svg" xmlns:xlink="http://www.w3.org/1999/xlink">
	<desc>
			Created with Pixso.
	</desc>
	<defs/>
	<path id="" d="M-0.75 23C-0.75 10.15 9.65 -0.25 22.5 -0.25C35.34 -0.25 45.75 10.15 45.75 23C45.75 35.84 35.34 46.25 22.5 46.25C9.65 46.25 -0.75 35.84 -0.75 23ZM3.75 23C3.75 33.4 12.09 41.75 22.5 41.75C32.81 41.75 41.25 33.4 41.25 23C41.25 12.68 32.81 4.25 22.5 4.25C12.09 4.25 3.75 12.68 3.75 23ZM29.81 31.71C29.43 32.28 28.78 32.37 28.21 32L20.25 26.18C19.96 26 19.87 25.62 19.87 25.34L19.87 9.87C19.87 9.31 20.34 8.75 21 8.75L24 8.75C24.56 8.75 25.12 9.31 25.12 9.87L25.12 23.18L31.31 27.78C31.87 28.15 31.96 28.81 31.59 29.37L29.81 31.71Z" fill="#F7654A" fill-opacity="1.000000" fill-rule="evenodd"/>
</svg>
