<svg width="60.000000" height="40.000000" viewBox="0 0 48 36" fill="none" xmlns="http://www.w3.org/2000/svg" xmlns:xlink="http://www.w3.org/1999/xlink">
	<desc>
			Created with Pixso.
	</desc>
	<defs/>
	<path id="" d="M4 0L43 0C45.43 0 47.5 2.06 47.5 4.5L47.5 31.5C47.5 34.03 45.43 36 43 36L4 36C1.46 36 -0.5 34.03 -0.5 31.5L-0.5 4.5C-0.5 2.06 1.46 0 4 0ZM43 8.34L43 4.5L4 4.5L4 8.34C6.06 10.12 9.43 12.75 16.56 18.37C16.85 18.59 17.2 18.88 17.58 19.19C19.26 20.59 21.66 22.57 23.5 22.5C25.24 22.57 27.61 20.61 29.29 19.22C29.68 18.89 30.04 18.6 30.34 18.37C37.46 12.75 40.84 10.12 43 8.34ZM4 14.15L4 31.5L43 31.5L43 14.15C40.84 15.84 37.75 18.28 33.15 21.93C32.78 22.21 32.36 22.55 31.9 22.91C29.74 24.66 26.75 27.07 23.5 27C20.04 27.08 16.86 24.47 14.73 22.72C14.37 22.43 14.04 22.16 13.75 21.93C9.15 18.28 6.06 15.84 4 14.15Z" fill="#F7654A" fill-opacity="1.000000" fill-rule="evenodd"/>
</svg>
