<svg width="18.000000" height="14.000000" viewBox="0 0 18 14" fill="none" xmlns="http://www.w3.org/2000/svg" xmlns:xlink="http://www.w3.org/1999/xlink">
	<desc>
			Created with Pixso.
	</desc>
	<defs/>
	<path id="" d="M16.39 -0.93C17.26 -0.93 18 -0.21 18 0.67C18 1.8 17.16 2.81 16.28 3.43C14.71 4.51 13.13 5.6 11.58 6.69C10.92 7.14 9.82 8.07 9.01 8.07L8.98 8.07C8.17 8.07 7.07 7.14 6.41 6.69C4.86 5.6 3.28 4.51 1.72 3.43C1.01 2.94 0 1.81 0 0.89C0 -0.09 0.53 -0.93 1.6 -0.93L16.39 -0.93ZM16.99 4.5C17.35 4.25 17.69 3.96 18 3.63L18 11.6C18 12.49 17.27 13.21 16.39 13.21L1.6 13.21C0.72 13.21 0 12.49 0 11.6L0 3.63C0.3 3.96 0.64 4.25 1.01 4.5C2.68 5.64 4.36 6.77 6 7.97C6.85 8.59 7.89 9.35 8.98 9.35L9.01 9.35C10.1 9.35 11.14 8.59 11.99 7.97C13.63 6.78 15.31 5.64 16.99 4.5Z" fill="#000000" fill-opacity="1.000000" fill-rule="evenodd"/>
</svg>
