<svg width="36.000000" height="49.000000" viewBox="0 0 36 49" fill="none" xmlns="http://www.w3.org/2000/svg" xmlns:xlink="http://www.w3.org/1999/xlink">
	<desc>
			Created with Pixso.
	</desc>
	<defs/>
	<path id="ï…" d="M-0.5 18C-0.5 8.15 7.46 0 17.5 0C27.34 0 35.5 8.06 35.5 18C35.5 24.75 33.25 26.81 21.25 45.93C19.46 48.75 15.43 48.75 13.65 45.93C1.65 26.81 -0.5 24.75 -0.5 18ZM4 18C4 23.15 5.5 24.37 17.5 43.5C29.5 24.18 31 23.15 31 18C31 10.59 24.9 4.5 17.5 4.5C10 4.5 4 10.59 4 18ZM17.5 25.5C13.28 25.5 10 22.21 10 18C10 13.87 13.28 10.5 17.5 10.5C21.62 10.5 25 13.87 25 18C25 22.21 21.62 25.5 17.5 25.5Z" fill="#F7654A" fill-opacity="1.000000" fill-rule="evenodd"/>
</svg>
