<svg width="48.000000" height="47.000000" viewBox="0 0 48 47" fill="none" xmlns="http://www.w3.org/2000/svg" xmlns:xlink="http://www.w3.org/1999/xlink">
	<desc>
			Created with Pixso.
	</desc>
	<defs/>
	<path id="" d="M35.31 -0.82L44.12 1.15C46.09 1.62 47.5 3.4 47.5 5.37C47.5 28.43 28.75 47 5.78 47C3.81 47 2.03 45.68 1.56 43.71L-0.41 34.9C-0.88 32.84 0.15 30.78 2.03 29.93L11.59 25.9C13.28 25.15 15.34 25.62 16.56 27.12L19.65 30.87C24.53 28.15 28.65 24.12 31.28 19.25L27.53 16.15C26.03 14.93 25.56 12.87 26.31 11.18L30.43 1.62C31.18 -0.25 33.25 -1.29 35.31 -0.82ZM4 34.06L5.96 42.5C26.31 42.4 42.9 25.9 43 5.56L34.46 3.59L30.53 12.78L36.9 18.03C32.5 27.31 27.71 32.09 18.43 36.5L13.18 30.12L4 34.06Z" fill="#F7654A" fill-opacity="1.000000" fill-rule="evenodd"/>
</svg>
